<svg width="20" height="20" viewBox="0 0 20 20" fill="none" xmlns="http://www.w3.org/2000/svg">
<g clip-path="url(#clip0_59_9)">
<path d="M19.8219 2.67102C19.6747 2.49147 19.4561 2.39715 19.2255 2.39715H3.59899V0.772387C3.59899 0.339842 3.26673 0.00268555 2.83896 0.00268555H0.774544C0.346804 0.0026974 0 0.358417 0 0.790974C0 1.22353 0.346804 1.57925 0.774544 1.57925H2.05154V17.004C2.05154 17.0096 2.05872 17.0151 2.0588 17.0208C2.05774 17.0535 2.05957 17.0861 2.05957 17.119C2.05957 18.7089 3.34038 20.0022 4.9127 20.0022C6.21655 20.0022 7.31959 19.1228 7.658 17.9019H11.666C12.0045 19.1228 13.1059 20.0022 14.4098 20.0022C15.9821 20.0022 17.2613 18.7088 17.2613 17.119C17.2613 15.5291 15.9821 14.2364 14.4098 14.2364C13.1059 14.2364 12.0045 15.1637 11.666 16.3372H7.65801C7.3196 15.1637 6.2109 14.2364 4.9071 14.2364C4.43865 14.2364 4.02102 14.3513 3.59899 14.5546V12.9956C3.71622 13.0174 3.8447 13.0537 3.96474 13.0537H16.3883C17.3833 13.0537 18.2287 12.3415 18.4919 11.2996C18.496 11.2836 18.4995 11.2614 18.5025 11.2452L19.9865 3.31455C20.0294 3.08539 19.969 2.8506 19.8219 2.67102ZM14.4098 15.8021C15.1279 15.8021 15.7122 16.3929 15.7122 17.119C15.7122 17.8452 15.1279 18.4359 14.4098 18.4359C13.6917 18.4359 13.1074 17.8452 13.1074 17.119C13.1074 16.3929 13.6917 15.8021 14.4098 15.8021ZM4.91432 15.8021C5.63245 15.8021 6.21669 16.3929 6.21669 17.119C6.21669 17.8452 5.63245 18.4359 4.91432 18.4359C4.19616 18.4359 3.61187 17.8452 3.61187 17.119C3.61188 16.3929 4.19616 15.8021 4.91432 15.8021ZM16.9857 10.9358C16.9439 11.0866 16.7958 11.4772 16.3883 11.4772H3.96474C3.76777 11.4772 3.59899 11.3006 3.59899 11.0935V3.96186H18.2906L16.9857 10.9358Z" fill="#DCC7B8"/>
</g>
<defs>
<clipPath id="clip0_59_9">
<rect width="20" height="20" fill="white"/>
</clipPath>
</defs>
</svg>
