<svg width="153" height="39" viewBox="0 0 153 39" fill="none" xmlns="http://www.w3.org/2000/svg">
<path d="M8.792 28.364C3.304 28.364 0.56 24.92 0.56 18.032C0.56 14.7653 1.22267 12.2827 2.548 10.584C3.892 8.88533 6.02933 8.036 8.96 8.036C11.312 8.036 13.4027 8.68933 15.232 9.996C15.232 11.0413 15.1013 12.3667 14.84 13.972C14.5787 14.028 14.0373 14.056 13.216 14.056L12.376 10.584C11.0507 10.3413 9.98667 10.22 9.184 10.22C7.70933 10.22 6.412 10.4253 5.292 10.836L4.76 11.032C4.648 11.2187 4.508 11.4987 4.34 11.872C4.172 12.2267 3.948 12.9827 3.668 14.14C3.40667 15.2973 3.276 16.4827 3.276 17.696C3.276 20.328 3.70533 22.4187 4.564 23.968C5.44133 25.5173 6.832 26.292 8.736 26.292C10.0987 26.292 11.1253 26.152 11.816 25.872C12.0027 25.7787 12.2733 25.6387 12.628 25.452L13.216 22.092L14.84 22.176C15.12 24.0987 15.26 25.6573 15.26 26.852C14.868 27.1507 14.0187 27.4773 12.712 27.832C11.424 28.1867 10.1173 28.364 8.792 28.364ZM24.019 26.656C25.587 26.656 26.6416 26.1707 27.183 25.2C27.743 24.2107 28.023 22.8107 28.023 21C28.023 18.1253 27.3883 16.324 26.119 15.596C25.5963 15.2973 24.859 15.148 23.907 15.148C22.9736 15.148 22.087 15.344 21.247 15.736C20.5003 17.1733 20.127 18.844 20.127 20.748C20.127 22.5773 20.3696 23.9867 20.855 24.976C21.415 26.096 22.4696 26.656 24.019 26.656ZM17.551 21C17.551 18.6293 18.0923 16.7813 19.175 15.456C20.2576 14.112 21.9283 13.44 24.187 13.44C26.4456 13.44 28.079 14.056 29.087 15.288C30.095 16.5013 30.599 18.3027 30.599 20.692C30.599 23.0813 30.0576 24.9573 28.975 26.32C27.911 27.6827 26.287 28.364 24.103 28.364C21.919 28.364 20.2763 27.7293 19.175 26.46C18.0923 25.1907 17.551 23.3707 17.551 21ZM41.9694 11.564L41.5214 11.536H41.4094L40.5414 8.792C40.1307 8.71733 39.7667 8.68 39.4494 8.68C38.5347 8.68 37.8907 9.03467 37.5174 9.744C37.1627 10.4533 36.9854 11.6947 36.9854 13.468V13.804H37.4054C38.6934 13.804 39.6827 13.8787 40.3734 14.028C40.392 14.028 40.4294 14.0373 40.4854 14.056C40.4667 14.5973 40.308 15.148 40.0094 15.708H36.8174V26.096H37.2374C37.9654 26.096 38.6094 26.1333 39.1694 26.208C39.7294 26.2827 40.028 26.3387 40.0654 26.376C40.0654 26.8613 39.9067 27.4027 39.5894 28H32.2534L32.1694 27.02C33.028 26.7213 33.812 26.4973 34.5214 26.348V15.708H32.3654L32.2814 14.728C32.9534 14.4667 33.7 14.2613 34.5214 14.112V12.964C34.5214 10.8547 34.9134 9.31467 35.6974 8.344C36.0147 7.97067 36.4627 7.66267 37.0414 7.42C37.62 7.15867 38.292 7.028 39.0574 7.028C40.5507 7.028 41.9694 7.35467 43.3134 8.008C43.3134 9.16533 43.2014 10.3227 42.9774 11.48C42.772 11.536 42.436 11.564 41.9694 11.564ZM50.038 26.432C50.8593 26.432 52.1473 26.04 53.902 25.256C54.2566 25.7413 54.4433 26.1707 54.462 26.544C53.51 27.104 52.5766 27.5427 51.662 27.86C50.7473 28.1773 50.094 28.336 49.702 28.336C47.5366 28.336 45.8846 27.692 44.746 26.404C43.6073 25.0973 43.038 23.2773 43.038 20.944C43.038 18.6107 43.5886 16.7813 44.69 15.456C45.81 14.112 47.4806 13.44 49.702 13.44C51.4193 13.44 52.726 14.056 53.622 15.288C54.5366 16.52 54.994 18.172 54.994 20.244C54.8446 20.5053 54.7233 20.6827 54.63 20.776L45.614 20.636C45.6326 22.5213 45.9593 23.9587 46.594 24.948C47.2473 25.9373 48.3953 26.432 50.038 26.432ZM52.446 19.04C52.446 17.808 52.222 16.856 51.774 16.184C51.326 15.4933 50.5793 15.148 49.534 15.148C48.4886 15.148 47.5553 15.344 46.734 15.736C46.174 16.856 45.8193 18.004 45.67 19.18C47.1446 19.1613 49.4033 19.1147 52.446 19.04ZM65.8501 15.792C65.7568 15.6987 65.5514 15.652 65.2341 15.652C64.9168 15.652 64.4408 15.764 63.8061 15.988C63.1901 16.212 62.6301 16.4733 62.1261 16.772C62.0141 20.916 61.9394 24.024 61.9021 26.096L64.2541 26.32C64.2541 26.8427 64.0954 27.4027 63.7781 28H57.3381L57.2541 27.02C58.1128 26.7213 58.9528 26.4973 59.7741 26.348C59.6621 21.6067 59.5688 18.0973 59.4941 15.82C58.4674 15.764 57.6461 15.652 57.0301 15.484L57.1421 14.028C58.1314 13.748 59.5968 13.608 61.5381 13.608C61.8368 14.0747 62.0234 14.672 62.0981 15.4C64.2448 14.0933 65.5234 13.44 65.9341 13.44C66.3448 13.44 66.8208 13.524 67.3621 13.692C67.9034 13.8413 68.3048 14.0093 68.5661 14.196C68.5661 16.0627 68.3888 17.584 68.0341 18.76C67.7728 18.8347 67.4648 18.872 67.1101 18.872C66.7741 18.872 66.5408 18.8627 66.4101 18.844L65.8501 15.792ZM78.4282 15.792C78.3349 15.6987 78.1296 15.652 77.8122 15.652C77.4949 15.652 77.0189 15.764 76.3842 15.988C75.7682 16.212 75.2082 16.4733 74.7042 16.772C74.5922 20.916 74.5176 24.024 74.4802 26.096L76.8322 26.32C76.8322 26.8427 76.6736 27.4027 76.3562 28H69.9162L69.8322 27.02C70.6909 26.7213 71.5309 26.4973 72.3522 26.348C72.2402 21.6067 72.1469 18.0973 72.0722 15.82C71.0456 15.764 70.2242 15.652 69.6082 15.484L69.7202 14.028C70.7096 13.748 72.1749 13.608 74.1162 13.608C74.4149 14.0747 74.6016 14.672 74.6762 15.4C76.8229 14.0933 78.1016 13.44 78.5122 13.44C78.9229 13.44 79.3989 13.524 79.9402 13.692C80.4816 13.8413 80.8829 14.0093 81.1442 14.196C81.1442 16.0627 80.9669 17.584 80.6122 18.76C80.3509 18.8347 80.0429 18.872 79.6882 18.872C79.3522 18.872 79.1189 18.8627 78.9882 18.844L78.4282 15.792ZM87.4503 11.116C86.965 11.228 86.489 11.284 86.0223 11.284C85.5743 11.284 85.1263 11.256 84.6783 11.2C84.5663 10.6773 84.5103 10.1547 84.5103 9.632C84.5103 9.09067 84.529 8.68933 84.5663 8.428C84.977 8.33467 85.4063 8.288 85.8543 8.288C86.321 8.288 86.8157 8.30667 87.3383 8.344C87.4503 8.82933 87.5063 9.30533 87.5063 9.772C87.5063 10.22 87.4877 10.668 87.4503 11.116ZM82.3543 14.056C83.941 13.776 85.173 13.636 86.0503 13.636C86.9277 13.636 87.4877 13.6547 87.7303 13.692C87.7303 14.14 87.6743 14.6347 87.5623 15.176C87.4503 15.7173 87.385 15.9787 87.3663 15.96L87.1143 26.096L89.4663 26.32C89.4663 26.8427 89.3077 27.4027 88.9903 28H82.5503L82.4663 27.02C83.325 26.7213 84.165 26.4973 84.9863 26.348C84.8743 21.6813 84.781 18.1813 84.7063 15.848C83.6237 15.848 82.8023 15.736 82.2423 15.512L82.3543 14.056ZM98.1356 26.432C98.957 26.432 100.245 26.04 102 25.256C102.354 25.7413 102.541 26.1707 102.56 26.544C101.608 27.104 100.674 27.5427 99.7596 27.86C98.845 28.1773 98.1916 28.336 97.7996 28.336C95.6343 28.336 93.9823 27.692 92.8436 26.404C91.705 25.0973 91.1356 23.2773 91.1356 20.944C91.1356 18.6107 91.6863 16.7813 92.7876 15.456C93.9076 14.112 95.5783 13.44 97.7996 13.44C99.517 13.44 100.824 14.056 101.72 15.288C102.634 16.52 103.092 18.172 103.092 20.244C102.942 20.5053 102.821 20.6827 102.728 20.776L93.7116 20.636C93.7303 22.5213 94.057 23.9587 94.6916 24.948C95.345 25.9373 96.493 26.432 98.1356 26.432ZM100.544 19.04C100.544 17.808 100.32 16.856 99.8716 16.184C99.4236 15.4933 98.677 15.148 97.6316 15.148C96.5863 15.148 95.653 15.344 94.8316 15.736C94.2716 16.856 93.917 18.004 93.7676 19.18C95.2423 19.1613 97.501 19.1147 100.544 19.04ZM113.948 15.792C113.854 15.6987 113.649 15.652 113.332 15.652C113.014 15.652 112.538 15.764 111.904 15.988C111.288 16.212 110.728 16.4733 110.224 16.772C110.112 20.916 110.037 24.024 110 26.096L112.352 26.32C112.352 26.8427 112.193 27.4027 111.876 28H105.436L105.352 27.02C106.21 26.7213 107.05 26.4973 107.872 26.348C107.76 21.6067 107.666 18.0973 107.592 15.82C106.565 15.764 105.744 15.652 105.128 15.484L105.24 14.028C106.229 13.748 107.694 13.608 109.636 13.608C109.934 14.0747 110.121 14.672 110.196 15.4C112.342 14.0933 113.621 13.44 114.032 13.44C114.442 13.44 114.918 13.524 115.46 13.692C116.001 13.8413 116.402 14.0093 116.664 14.196C116.664 16.0627 116.486 17.584 116.132 18.76C115.87 18.8347 115.562 18.872 115.208 18.872C114.872 18.872 114.638 18.8627 114.508 18.844L113.948 15.792Z" fill="white"/>
<path d="M143.206 9.03437C141.838 7.66602 139.912 7 137.854 7V7.96875C139.791 7.96875 141.378 8.58633 142.528 9.72461C144.042 11.2383 144.599 13.5754 144.078 16.3C143.545 19.1578 141.91 22.0641 139.476 24.498C136.485 27.4891 132.707 29.2812 129.377 29.2812C127.464 29.2812 125.841 28.6758 124.703 27.5375C123.189 26.0238 122.632 23.6867 123.153 20.9621C123.686 18.1043 125.321 15.198 127.755 12.7641C130.746 9.76094 134.524 7.96875 137.854 7.96875V7C134.403 7 130.358 8.78008 127.064 12.0738C121.773 17.3656 120.404 24.5949 124.025 28.2156C125.393 29.584 127.282 30.2379 129.377 30.2379C132.828 30.2379 136.873 28.4699 140.167 25.1762C145.458 19.8723 146.827 12.6551 143.206 9.03437Z" fill="white"/>
<path d="M136.885 13.0305C136.352 13.4059 135.807 13.8297 135.25 14.302C135.178 14.3625 135.117 14.423 135.044 14.4836L134.935 14.5805L134.887 14.6289L134.875 14.641H134.863C134.851 14.6531 134.875 14.6289 134.839 14.6652L134.814 14.6895C134.754 14.75 134.681 14.8105 134.621 14.8711C134.548 14.9437 134.475 15.0285 134.403 15.1012C134.124 15.4039 133.87 15.7309 133.64 16.082C133.41 16.4332 133.216 16.8086 133.046 17.184C132.877 17.5594 132.744 17.9227 132.623 18.2738C132.501 18.625 132.38 18.952 132.259 19.2426C132.138 19.5453 132.005 19.8238 131.848 20.0902C131.69 20.3566 131.521 20.6109 131.327 20.8531C131.278 20.9137 131.23 20.9742 131.182 21.0348L131.109 21.1195L131.073 21.168L131.048 21.1922L131.036 21.2043C131.036 21.2043 131.06 21.1922 131.048 21.2043C130.927 21.3375 130.806 21.4586 130.685 21.5918C130.564 21.725 130.455 21.8219 130.346 21.943C130.285 22.0035 130.237 22.0641 130.176 22.1125C130.116 22.173 130.055 22.2215 130.007 22.282C129.777 22.5121 129.547 22.7301 129.317 22.948C129.087 23.166 128.869 23.3719 128.651 23.5656C128.433 23.7715 128.227 23.9652 128.021 24.1469C126.362 25.6484 125.26 26.6414 125.26 26.6414C125.187 26.7141 125.151 26.823 125.199 26.9199C125.26 27.041 125.405 27.1016 125.526 27.041C125.526 27.041 125.611 27.0047 125.769 26.9199C125.926 26.8473 126.156 26.7262 126.447 26.5809C126.737 26.4355 127.089 26.2418 127.488 26.0117C127.888 25.7816 128.336 25.5273 128.808 25.2246C129.05 25.0793 129.292 24.9098 129.547 24.7523C129.801 24.5828 130.055 24.4012 130.322 24.2195C130.588 24.0258 130.867 23.832 131.133 23.6262C131.206 23.5777 131.266 23.5172 131.339 23.4687C131.412 23.4082 131.484 23.3598 131.545 23.2992C131.678 23.1902 131.835 23.0691 131.969 22.948C132.102 22.8391 132.235 22.718 132.368 22.609C132.441 22.5363 132.514 22.4637 132.598 22.391C132.671 22.3184 132.744 22.2457 132.804 22.173C133.083 21.8824 133.349 21.5555 133.579 21.2043C134.051 20.502 134.366 19.7027 134.621 19.0125C134.742 18.6613 134.863 18.3344 134.984 18.0316C135.105 17.7289 135.238 17.4504 135.383 17.1719C135.529 16.9055 135.71 16.6512 135.892 16.409L136.025 16.2395C136.086 16.1789 136.146 16.1062 136.207 16.0457L136.231 16.0215C136.207 16.0457 136.231 16.0215 136.219 16.0336L136.231 16.0215L136.28 15.973L136.364 15.8762C136.425 15.8156 136.473 15.7551 136.534 15.6945C136.994 15.2102 137.454 14.75 137.914 14.3262C138.144 14.1082 138.362 13.9023 138.58 13.7086C138.798 13.5027 139.004 13.309 139.21 13.1273C140.033 12.3887 140.724 11.7711 141.196 11.3352C141.68 10.8992 141.959 10.6449 141.959 10.6449C142.032 10.5723 142.068 10.4633 142.019 10.3664C141.959 10.2453 141.814 10.1848 141.692 10.2453C141.692 10.2453 141.341 10.4027 140.76 10.7055C140.469 10.8508 140.118 11.0445 139.719 11.2746C139.319 11.5047 138.871 11.759 138.399 12.0617C138.157 12.207 137.914 12.3766 137.66 12.534C137.418 12.6672 137.151 12.8488 136.885 13.0305Z" fill="white"/>
</svg>
