<svg width="35" height="36" viewBox="0 0 35 36" fill="none" xmlns="http://www.w3.org/2000/svg">
<g clip-path="url(#clip0_91_41)">
<path d="M17.5 35.707C27.165 35.707 35 27.872 35 18.207C35 8.54205 27.165 0.707031 17.5 0.707031C7.83502 0.707031 0 8.54205 0 18.207C0 27.872 7.83502 35.707 17.5 35.707Z" fill="#6F4E37"/>
<path fill-rule="evenodd" clip-rule="evenodd" d="M16.8373 25.8838H18.2113C18.2113 25.8838 18.6283 25.8359 18.8402 25.6104C19.0385 25.3984 19.0316 25.0088 19.0316 25.0088C19.0316 25.0088 19.0043 23.1631 19.8588 22.8965C20.6996 22.6299 21.7865 24.6738 22.9349 25.4668C23.8031 26.0615 24.4593 25.9316 24.4593 25.9316L27.5287 25.8906C27.5287 25.8906 29.1351 25.7949 28.3695 24.5303C28.308 24.4277 27.9252 23.5938 26.0863 21.8916C24.1654 20.1074 24.4183 20.3945 26.7357 17.3047C28.1508 15.4248 28.7113 14.2764 28.5336 13.7842C28.3627 13.3125 27.3304 13.4424 27.3304 13.4424L23.8715 13.4629C23.8715 13.4629 23.6185 13.4287 23.4271 13.5381C23.2426 13.6475 23.1195 13.9072 23.1195 13.9072C23.1195 13.9072 22.5726 15.3633 21.8412 16.6006C20.3031 19.2119 19.6879 19.3486 19.4349 19.1914C18.847 18.8086 18.9974 17.6738 18.9974 16.8604C18.9974 14.3311 19.3802 13.2715 18.2523 12.9981C17.8763 12.9092 17.6029 12.8477 16.639 12.8408C15.4086 12.8272 14.3627 12.8408 13.7679 13.1348C13.3783 13.3262 13.0707 13.7568 13.2552 13.7773C13.4808 13.8047 14.0004 13.9209 14.2738 14.29C14.6293 14.7686 14.6156 15.8555 14.6156 15.8555C14.6156 15.8555 14.8207 18.8359 14.1371 19.2051C13.6722 19.458 13.0297 18.9385 11.6625 16.5732C10.9584 15.3565 10.432 14.0166 10.432 14.0166C10.432 14.0166 10.3295 13.7637 10.1449 13.6338C9.91931 13.4697 9.61169 13.4219 9.61169 13.4219L6.33044 13.4424C6.33044 13.4424 5.83826 13.4561 5.65369 13.668C5.49646 13.8594 5.64001 14.2559 5.64001 14.2559C5.64001 14.2559 8.21033 20.2715 11.1224 23.2998C13.809 26.0684 16.8373 25.8838 16.8373 25.8838Z" fill="#DCC7B8"/>
</g>
<defs>
<clipPath id="clip0_91_41">
<rect width="35" height="35" fill="white" transform="translate(0 0.707031)"/>
</clipPath>
</defs>
</svg>
