<svg width="35" height="36" viewBox="0 0 35 36" fill="none" xmlns="http://www.w3.org/2000/svg">
<g clip-path="url(#clip0_91_51)">
<path fill-rule="evenodd" clip-rule="evenodd" d="M17.5 0.707031C27.1585 0.707031 35 8.54854 35 18.207C35 27.8655 27.1585 35.707 17.5 35.707C7.8415 35.707 0 27.8655 0 18.207C0 8.54854 7.8415 0.707031 17.5 0.707031ZM27.9805 12.9419C27.729 12.0006 26.9878 11.2595 26.0466 11.008C24.3405 10.5508 17.5 10.5508 17.5 10.5508C17.5 10.5508 10.6595 10.5508 8.95337 11.008C8.0124 11.2595 7.27104 12.0006 7.01948 12.9419C6.5625 14.6478 6.5625 18.2072 6.5625 18.2072C6.5625 18.2072 6.5625 21.7664 7.01948 23.4722C7.27104 24.4134 8.0124 25.1548 8.95337 25.4063C10.6595 25.8633 17.5 25.8633 17.5 25.8633C17.5 25.8633 24.3405 25.8633 26.0466 25.4063C26.9878 25.1548 27.729 24.4134 27.9805 23.4722C28.4375 21.7664 28.4375 18.2072 28.4375 18.2072C28.4375 18.2072 28.4375 14.6478 27.9805 12.9419ZM15.3124 21.4885V14.9258L20.9956 18.2072L15.3124 21.4885Z" fill="#6F4E37"/>
</g>
<defs>
<clipPath id="clip0_91_51">
<rect width="35" height="35" fill="white" transform="translate(0 0.707031)"/>
</clipPath>
</defs>
</svg>
